<svg version="1.1" xmlns="http://www.w3.org/2000/svg" xmlns:xlink="http://www.w3.org/1999/xlink" viewBox="0 0 280 280">
    <g fill="#E83F5F" stroke="#fff" stroke-width="3">

        <path d="M101.2,226.3c-4.9,0.9-11.6-0.3-23.4-3.2c-9.4-2.3-14.4-2.2-21.9-0.6c2.2-5.9,4.9-15.2,29.3-15.5
                    c0.3,0,0.6-0.1,0.9-0.1c-1.9-2.1-3.8-4.2-5.8-6.2c-14.8-14.8-31.5-26.1-49.3-34c-15.7,3.6-32.2,18.8-27.7,46.9
                    c12.5-17.2,21.5-20.7,39.4-16.3c-12.7,2.7-27.2,14.7-30,27c-3.4,15.1,4,39.3-5.4,49.3c12.6,5.8,29.7,3.8,34.8-9.7
                    c10-26.3,19.1-18.6,24.7-16.4c-11.8,10.2-10.6,14.9-11.1,21.2c13.8-9.5,45,6.3,57.7-10.2c1.1-1.4,1.9-2.9,2.6-4.6
                    C112,244.5,107.1,235.2,101.2,226.3L101.2,226.3z">

            <animate id="keyframe0" attributeName="d" begin="0ms; keyframe1.end" dur="300ms" fill="freeze"
                     to="M101.2,226.3c-4.9,0.9-3.6,7.4-16,9c-11.7,1.5-18-8-25.2-10.2c6,1.8,22-3.4,25.2-18.1
                    c0.1-0.3,0.6-0.1,0.9-0.1c-1.9-2.1-3.8-4.2-5.8-6.2c-14.8-14.8-31.5-26.1-49.3-34c-15.7,3.6-27.7,12.3-18.7,52.4
                    c-4.7-20.8,18.4-7.8,30.3-21.8c-9.3,11.1-13.8,21.5-12.4,35c1.5,15.4-13.1,28.2-26.8,28.7c25.5-0.8,20.7,0.1,32.7-8
                    c23.2-15.7,30.5,0.5,30.7-5.5c-0.6,11.8-11.6,20.7-17.6,18.5c20.2,7.5,51.7,16.7,64.2-7.4c0.8-1.5,1.9-2.9,2.6-4.6
                    C112,244.5,107.1,235.2,101.2,226.3L101.2,226.3z"></animate>

            <animate id="keyframe1" attributeName="d" begin="keyframe0.end" dur="300ms" fill="freeze"
                     to="M101.2,226.3c-4.9,0.9-11.6-0.3-23.4-3.2c-9.4-2.3-14.4-2.2-21.9-0.6c2.2-5.9,4.9-15.2,29.3-15.5
                    c0.3,0,0.6-0.1,0.9-0.1c-1.9-2.1-3.8-4.2-5.8-6.2c-14.8-14.8-31.5-26.1-49.3-34c-15.7,3.6-32.2,18.8-27.7,46.9
                    c12.5-17.2,21.5-20.7,39.4-16.3c-12.7,2.7-27.2,14.7-30,27c-3.4,15.1,4,39.3-5.4,49.3c12.6,5.8,29.7,3.8,34.8-9.7
                    c10-26.3,19.1-18.6,24.7-16.4c-11.8,10.2-10.6,14.9-11.1,21.2c13.8-9.5,45,6.3,57.7-10.2c1.1-1.4,1.9-2.9,2.6-4.6
                    C112,244.5,107.1,235.2,101.2,226.3L101.2,226.3z"></animate>
        </path>

        <path d="M148.9,96.1c-3.9,4-10.4,3.9-14.3,0c-3.9-3.9-3.9-10.3,0-14.3c3.9-4,10.3-3.9,14.3,0
                    C152.9,85.8,152.9,92.2,148.9,96.1L148.9,96.1z"></path>

        <path d="M199.1,146.3c-3.9,3.9-10.3,3.9-14.3,0c-3.9-4-3.9-10.3,0-14.3c4-3.9,10.3-3.9,14.3,0
                    C203.1,136,203.1,142.4,199.1,146.3L199.1,146.3z"></path>

        <path d="M277.3,3.4L138,28.2c-19.6,3.3-33.1,18.6-42.7,29.6c-15.6,18-24.9,39.2-25.9,60.6c-17.7,1-34.6,7.9-47.7,20.7
                    c27.7,6.7,51.3,24.4,73.5,46.6c22.2,22.2,39.9,45.9,46.6,73.5c12.8-13,19.7-29.9,20.7-47.5c21.3-1.1,42.4-10.4,60.6-26.1
                    c11.1-9.6,26.3-23,29.7-42.7L277.5,3.6L277.3,3.4L277.3,3.4z M50.5,141.8c0,0-5.7-3.8-11.5-5c0,0,14-12.1,32.7-12.4
                    C71.7,124.5,52.1,131.4,50.5,141.8L50.5,141.8z M221.1,159.2c-19.4,19.4-57.4,13-84.9-14.5c-27.4-27.4-33.9-65.4-14.5-84.9
                    c19.4-19.4,57.4-13,84.9,14.5C234,101.8,240.5,139.8,221.1,159.2L221.1,159.2z M198.7,50.9c-23.5-15.4-44.8-14.4-44.8-14.4
                    l113.6-25.6C267.5,10.9,219.3,26,198.7,50.9L198.7,50.9z"></path>

    </g>
</svg>
