<svg version="1.1" xmlns="http://www.w3.org/2000/svg" xmlns:xlink="http://www.w3.org/1999/xlink" x="0px" y="0px"
	 width="108px" height="24px" viewBox="-322 246 315 70" style="enable-background:new -322 246 315 70;" xml:space="preserve">
<g fill="#7d7777">
	<path class="travelhood-svg-3" d="M-297.1,302.4c-1.2,0.2-2.8-0.1-5.7-0.8c-2.3-0.6-3.5-0.5-5.3-0.1c0.5-1.4,1.2-3.7,7.1-3.8c0.1,0,0.1,0,0.2,0
		c-0.5-0.5-0.9-1-1.4-1.5c-3.6-3.6-7.7-6.3-12-8.3c-3.8,0.9-7.8,4.6-6.7,11.4c3-4.2,5.2-5,9.6-4c-3.1,0.7-6.6,3.6-7.3,6.6
		c-0.8,3.7,1,9.6-1.3,12c3.1,1.4,7.2,0.9,8.5-2.4c2.4-6.4,4.6-4.5,6-4c-2.9,2.5-2.6,3.6-2.7,5.2c3.4-2.3,10.9,1.5,14-2.5
		c0.3-0.3,0.5-0.7,0.6-1.1C-294.4,306.8-295.6,304.6-297.1,302.4"></path>
	<path class="travelhood-svg-3" d="M-285.5,270.8c-1,1-2.5,1-3.5,0s-1-2.5,0-3.5s2.5-1,3.5,0S-284.5,269.8-285.5,270.8"></path>
	<path class="travelhood-svg-3" d="M-273.3,283c-1,1-2.5,1-3.5,0s-1-2.5,0-3.5s2.5-1,3.5,0S-272.3,282-273.3,283"></path>
	<path class="travelhood-svg-3" d="M-273.4,259.8c-5.7-3.7-10.9-3.5-10.9-3.5l27.6-6.2C-256.7,250.1-268.4,253.8-273.4,259.8 M-268,286.1
		c-4.7,4.7-13.9,3.1-20.6-3.5c-6.7-6.7-8.2-15.9-3.5-20.6c4.7-4.7,13.9-3.1,20.6,3.5C-264.8,272.2-263.2,281.4-268,286.1
		 M-309.4,281.9c0,0-1.4-0.9-2.8-1.2c0,0,3.4-2.9,7.9-3C-304.2,277.7-309,279.4-309.4,281.9 M-254.3,248.3l-33.8,6
		c-4.8,0.8-8,4.5-10.4,7.2c-3.8,4.4-6,9.5-6.3,14.7c-4.3,0.3-8.4,1.9-11.6,5c6.7,1.6,12.5,5.9,17.9,11.3s9.7,11.1,11.3,17.9
		c3.1-3.2,4.8-7.3,5-11.5c5.2-0.3,10.3-2.5,14.7-6.3c2.7-2.3,6.4-5.6,7.2-10.4L-254.3,248.3L-254.3,248.3z"></path>
	<path class="travelhood-svg-3" d="M-23,281.4c0.6-4.3,1.3-6.2,5.7-4.8l-1.6,11.1C-24.3,290.1-24.1,288.9-23,281.4 M-31,282.4
		c-1,8,1,11.3,6.7,11.3c1.8,0,4.1-0.9,5.7-1.9l0.2,1.7h6.4l4-29.3h-7.7l-1.1,8.1c-1.8-0.6-2.6-0.7-4.1-0.7c-6.6,0-8.8,2.8-9.9,9.8
		L-31,282.4z M-48.6,289.6c-3.1,0-3.2-1.3-2.4-6.8c0.8-5.7,1.1-7,4.2-7c3.2,0,3.4,1.1,2.5,7C-44.9,288.4-45.4,289.6-48.6,289.6
		 M-49.1,294c9.6,0,11.4-2.5,12.6-11.2c1.3-8.7,0-11.2-9.5-11.2c-9.5,0-11.3,2.3-12.5,11.2C-59.7,291.3-58.7,294-49.1,294
		 M-76.1,289.6c-3.1,0-3.2-1.3-2.4-6.8c0.8-5.7,1.1-7,4.2-7c3.2,0,3.4,1.1,2.5,7C-72.5,288.4-72.9,289.6-76.1,289.6 M-76.8,294
		c9.6,0,11.4-2.5,12.6-11.2c1.3-8.7,0-11.2-9.5-11.2s-11.3,2.3-12.5,11.2C-87.3,291.3-86.3,294-76.8,294 M-93.7,293.5l2.3-16.3
		c0.5-3.8-1.6-5.6-6.6-5.6c-1.8,0-4.6,0.7-6.3,1.4l1.1-8.5h-7.7l-4,29.1h7.9l2.2-16.3c2.5-0.6,5.8-1.8,5.5,0.7l-2.1,15.6H-93.7z
		 M-119.4,290.3c-2.5-0.3-2.4-1.3-2.2-2.2l3.2-23.5h-7.9l-3.2,22.8c-0.7,5.2,2.2,6.5,6.2,6.5c0.3,0,0.7,0,3.4-0.3L-119.4,290.3z
		 M-144,275.3c2.3,0,3.2,0.6,3.2,3.1v0.6c0,0.5,0,1.7-0.8,1.7h-6.6C-147.7,276.8-147.2,275.3-144,275.3 M-133.8,278
		c0-4.8-2.5-6.6-9.9-6.6c-9.2,0-11.2,2.6-12.3,11.3c-0.2,1.8-0.3,3.2-0.3,4.4c0,4.8,2.3,6.7,9,6.7c3.1,0,6.7-0.3,10.4-0.9l0.3-3.5
		c-4.7,0.6-8,0.6-8.9,0.6c-1.9,0-3.5-0.1-3.5-3c0-0.7,0-1.7,0.1-2.6l7-0.1C-133.8,284.3-133.8,279.7-133.8,278 M-168.1,293.5
		l10.5-21.5h-7.5l-6.8,15.8l-1.9-15.8h-7.5l4,21.5H-168.1z M-196.5,275.5c1.4-0.2,2.7,0.1,3.9,0.2l-1.8,12.3
		c-0.6,0.6-2.5,2.1-4.4,2.1s-1.1-6.4-0.9-7.9C-199.5,280.3-198.8,275.8-196.5,275.5z M-207.3,281.4c-0.3,2.4-0.3,3.8-0.3,5.1
		c0,3.9,1.1,7.4,7.1,7.4c2.8,0,5.6-1.3,6.5-2.2l0.3,1.9h5.9l2.6-20.4c-4.7-1-10.4-1.6-12.3-1.6
		C-203.6,271.6-206.5,274.6-207.3,281.4L-207.3,281.4z M-217,273.7l0.1-1.7h-7.2l-3,21.5h7.9l2.2-15.5c1.9-0.7,4.8-1.7,7.5-1.9
		l0.6-4.7C-213.5,272-215.5,273-217,273.7 M-235.5,294c0.9,0,2.3-0.1,4.3-0.5c0.1-1.3,0.3-2.6,0.6-3.9c-0.7,0-1.4,0.1-2.6,0.1
		c-2.1,0-2.8,0-2.8-1.6c0-0.5,0.1-0.9,1.5-11.7h5.2c0.2-1.5,0.5-2.8,0.6-4.3h-5.2l0.7-5h-7.6c-0.2,1.6-0.5,3.4-0.7,5h-5.1
		c-0.2,1.5-0.5,2.8-0.7,4.3h5.1l-1.4,9.5C-244.7,292.6-241.9,294-235.5,294"></path>
</g>
</svg>
